<?xml version="1.0" encoding="UTF-8"?>
<svg id="Layer_1" data-name="Layer 1" xmlns="http://www.w3.org/2000/svg" viewBox="0 0 836.47 870.52">
  <defs>
    <style>
      .cls-1 {
        fill: #fff;
      }

      .cls-2 {
        fill: none;
        stroke: #fff;
        stroke-linecap: round;
        stroke-miterlimit: 10;
        stroke-width: 12px;
      }
    </style>
  </defs>
  <g>
    <path class="cls-1" d="M64.43,379.91c-8.88-8.64-13.31-19.27-13.31-31.87s4.44-22.54,13.31-31.18c8.87-8.64,19.38-12.96,31.53-12.96s22.65,4.32,31.53,12.96c8.88,8.64,13.31,19.03,13.31,31.18s-4.44,23.23-13.31,31.87c-8.87,8.64-19.38,12.96-31.53,12.96s-22.65-4.32-31.53-12.96ZM127.48,490.6c8.88,8.64,13.31,19.27,13.31,31.88s-4.44,22.54-13.31,31.18c-8.87,8.64-19.38,12.96-31.53,12.96s-22.65-4.32-31.53-12.96c-8.88-8.64-13.31-19.03-13.31-31.18s4.44-23.24,13.31-31.88c8.87-8.64,19.38-12.96,31.53-12.96s22.65,4.32,31.53,12.96Z"/>
    <path class="cls-1" d="M339.06,198.1c14.48,6.07,26.98,14.48,37.48,25.22,10.51,10.74,18.92,23.24,25.22,37.48,6.31,14.24,9.46,29.31,9.46,45.19v258.52c0,16.35-3.15,31.53-9.46,45.54-6.3,14.01-14.71,26.39-25.22,37.13-10.51,10.74-23,19.15-37.48,25.22-14.48,6.07-29.66,9.11-45.54,9.11h-21.72c-16.34,0-31.53-3.04-45.54-9.11-14.01-6.07-26.39-14.48-37.13-25.22-10.74-10.74-19.15-23.12-25.22-37.13-6.07-14.01-9.11-29.19-9.11-45.54v-258.52c0-15.88,3.04-30.95,9.11-45.19,6.07-14.24,14.48-26.74,25.22-37.48s23.12-19.15,37.13-25.22c14.01-6.07,29.19-9.11,45.54-9.11h21.72c15.88,0,31.06,3.04,45.54,9.11ZM252.89,583.44c5.14,5.14,11.44,7.7,18.91,7.7h21.72c7.94,0,14.48-2.57,19.62-7.7,5.14-5.14,7.71-11.45,7.71-18.92v-236.1c0-7.48-2.57-13.9-7.71-19.27s-11.68-8.06-19.62-8.06h-21.72c-7.47,0-13.78,2.69-18.91,8.06s-7.7,11.79-7.7,19.27v236.1c0,7.47,2.57,13.78,7.7,18.92Z"/>
    <path class="cls-1" d="M609.5,198.1c14.48,6.07,26.97,14.48,37.48,25.22,10.51,10.74,18.92,23.24,25.22,37.48,6.31,14.24,9.46,29.31,9.46,45.19v258.52c0,16.35-3.15,31.53-9.46,45.54-6.3,14.01-14.71,26.39-25.22,37.13-10.51,10.74-23,19.15-37.48,25.22-14.48,6.07-29.66,9.11-45.54,9.11h-21.72c-16.35,0-31.53-3.04-45.54-9.11-14.01-6.07-26.39-14.48-37.13-25.22-10.74-10.74-19.15-23.12-25.22-37.13-6.07-14.01-9.11-29.19-9.11-45.54v-258.52c0-15.88,3.04-30.95,9.11-45.19,6.07-14.24,14.48-26.74,25.22-37.48,10.74-10.74,23.12-19.15,37.13-25.22,14.01-6.07,29.19-9.11,45.54-9.11h21.72c15.88,0,31.06,3.04,45.54,9.11ZM523.33,583.44c5.14,5.14,11.44,7.7,18.92,7.7h21.72c7.94,0,14.48-2.57,19.62-7.7,5.14-5.14,7.7-11.45,7.7-18.92v-236.1c0-7.48-2.57-13.9-7.7-19.27s-11.68-8.06-19.62-8.06h-21.72c-7.48,0-13.78,2.69-18.92,8.06-5.14,5.37-7.71,11.79-7.71,19.27v236.1c0,7.47,2.57,13.78,7.71,18.92Z"/>
    <path class="cls-1" d="M708.99,379.91c-8.87-8.64-13.31-19.27-13.31-31.87s4.44-22.54,13.31-31.18c8.88-8.64,19.38-12.96,31.53-12.96s22.65,4.32,31.53,12.96c8.87,8.64,13.31,19.03,13.31,31.18s-4.44,23.23-13.31,31.87c-8.88,8.64-19.38,12.96-31.53,12.96s-22.65-4.32-31.53-12.96ZM772.05,490.6c8.87,8.64,13.31,19.27,13.31,31.88s-4.44,22.54-13.31,31.18c-8.88,8.64-19.38,12.96-31.53,12.96s-22.65-4.32-31.53-12.96c-8.87-8.64-13.31-19.03-13.31-31.18s4.44-23.24,13.31-31.88c8.88-8.64,19.38-12.96,31.53-12.96s22.65,4.32,31.53,12.96Z"/>
  </g>
  <g>
    <line class="cls-2" x1="6" y1="143.98" x2="6" y2="6"/>
    <line class="cls-2" x1="6" y1="6" x2="143.98" y2="6"/>
  </g>
  <g>
    <line class="cls-2" x1="692.49" y1="6" x2="830.47" y2="6"/>
    <line class="cls-2" x1="830.47" y1="6" x2="830.47" y2="143.98"/>
  </g>
  <g>
    <line class="cls-2" x1="830.47" y1="726.54" x2="830.47" y2="864.52"/>
    <line class="cls-2" x1="830.47" y1="864.52" x2="692.49" y2="864.52"/>
  </g>
  <g>
    <line class="cls-2" x1="143.98" y1="864.52" x2="6" y2="864.52"/>
    <line class="cls-2" x1="6" y1="864.52" x2="6" y2="726.54"/>
  </g>
</svg>